<mxfile host="app.diagrams.net" agent="Mozilla/5.0 (Windows NT 10.0; Win64; x64) AppleWebKit/537.36 (KHTML, like Gecko) Chrome/129.0.0.0 Safari/537.36" version="24.7.17">
  <diagram name="Página-1" id="fyo0r02MKrc9aQDD_FKP">
    <mxGraphModel grid="1" page="1" gridSize="10" guides="1" tooltips="1" connect="1" arrows="1" fold="1" pageScale="1" pageWidth="827" pageHeight="1169" math="0" shadow="0">
      <root>
        <mxCell id="0" />
        <mxCell id="1" parent="0" />
        <mxCell id="nVTlnKo6TMAFPRb4esHr-1" value="" style="endArrow=none;html=1;rounded=0;" edge="1" parent="1">
          <mxGeometry width="50" height="50" relative="1" as="geometry">
            <mxPoint x="350" y="490" as="sourcePoint" />
            <mxPoint x="1490" y="490" as="targetPoint" />
          </mxGeometry>
        </mxCell>
        <mxCell id="nVTlnKo6TMAFPRb4esHr-2" value="" style="endArrow=none;html=1;rounded=0;" edge="1" parent="1">
          <mxGeometry width="50" height="50" relative="1" as="geometry">
            <mxPoint x="490" y="430" as="sourcePoint" />
            <mxPoint x="490" y="2240" as="targetPoint" />
          </mxGeometry>
        </mxCell>
        <mxCell id="nVTlnKo6TMAFPRb4esHr-3" value="" style="endArrow=none;html=1;rounded=0;" edge="1" parent="1">
          <mxGeometry width="50" height="50" relative="1" as="geometry">
            <mxPoint x="860" y="440" as="sourcePoint" />
            <mxPoint x="860" y="2240" as="targetPoint" />
          </mxGeometry>
        </mxCell>
        <mxCell id="nVTlnKo6TMAFPRb4esHr-4" value="" style="endArrow=none;html=1;rounded=0;" edge="1" parent="1">
          <mxGeometry width="50" height="50" relative="1" as="geometry">
            <mxPoint x="1158.89" y="415" as="sourcePoint" />
            <mxPoint x="1160" y="2240" as="targetPoint" />
          </mxGeometry>
        </mxCell>
        <mxCell id="nVTlnKo6TMAFPRb4esHr-5" value="" style="endArrow=none;html=1;rounded=0;" edge="1" parent="1">
          <mxGeometry width="50" height="50" relative="1" as="geometry">
            <mxPoint x="1470" y="440" as="sourcePoint" />
            <mxPoint x="1470" y="2230" as="targetPoint" />
          </mxGeometry>
        </mxCell>
        <mxCell id="nVTlnKo6TMAFPRb4esHr-6" value="Usuario" style="shape=umlActor;verticalLabelPosition=bottom;verticalAlign=top;html=1;outlineConnect=0;" vertex="1" parent="1">
          <mxGeometry x="400" y="380" width="50" height="90" as="geometry" />
        </mxCell>
        <mxCell id="nVTlnKo6TMAFPRb4esHr-7" value="Interfaz" style="text;html=1;align=center;verticalAlign=middle;resizable=0;points=[];autosize=1;strokeColor=none;fillColor=none;" vertex="1" parent="1">
          <mxGeometry x="620" y="440" width="60" height="30" as="geometry" />
        </mxCell>
        <mxCell id="nVTlnKo6TMAFPRb4esHr-8" value="Sistema" style="text;html=1;align=center;verticalAlign=middle;resizable=0;points=[];autosize=1;strokeColor=none;fillColor=none;" vertex="1" parent="1">
          <mxGeometry x="890" y="440" width="70" height="30" as="geometry" />
        </mxCell>
        <mxCell id="nVTlnKo6TMAFPRb4esHr-9" value="Base de datos" style="text;html=1;align=center;verticalAlign=middle;resizable=0;points=[];autosize=1;strokeColor=none;fillColor=none;" vertex="1" parent="1">
          <mxGeometry x="1160" y="430" width="100" height="30" as="geometry" />
        </mxCell>
        <mxCell id="nVTlnKo6TMAFPRb4esHr-10" value="" style="points=[[0.145,0.145,0],[0.5,0,0],[0.855,0.145,0],[1,0.5,0],[0.855,0.855,0],[0.5,1,0],[0.145,0.855,0],[0,0.5,0]];shape=mxgraph.bpmn.event;html=1;verticalLabelPosition=bottom;labelBackgroundColor=#ffffff;verticalAlign=top;align=center;perimeter=ellipsePerimeter;outlineConnect=0;aspect=fixed;outline=standard;symbol=general;shadow=1;strokeColor=default;fontFamily=Helvetica;fontSize=12;fontColor=default;fillColor=#000000;" vertex="1" parent="1">
          <mxGeometry x="230" y="1698.5" width="50" height="50" as="geometry" />
        </mxCell>
        <mxCell id="nVTlnKo6TMAFPRb4esHr-11" value="" style="edgeStyle=orthogonalEdgeStyle;rounded=0;orthogonalLoop=1;jettySize=auto;html=1;" edge="1" parent="1" source="nVTlnKo6TMAFPRb4esHr-15" target="nVTlnKo6TMAFPRb4esHr-17">
          <mxGeometry relative="1" as="geometry" />
        </mxCell>
        <mxCell id="nVTlnKo6TMAFPRb4esHr-12" style="edgeStyle=orthogonalEdgeStyle;rounded=0;orthogonalLoop=1;jettySize=auto;html=1;exitX=1;exitY=0.5;exitDx=0;exitDy=0;entryX=0;entryY=0.5;entryDx=0;entryDy=0;" edge="1" parent="1" source="nVTlnKo6TMAFPRb4esHr-15" target="nVTlnKo6TMAFPRb4esHr-38">
          <mxGeometry relative="1" as="geometry" />
        </mxCell>
        <mxCell id="nVTlnKo6TMAFPRb4esHr-13" style="edgeStyle=orthogonalEdgeStyle;rounded=0;orthogonalLoop=1;jettySize=auto;html=1;exitX=1;exitY=0.5;exitDx=0;exitDy=0;entryX=0;entryY=0.5;entryDx=0;entryDy=0;" edge="1" parent="1" source="nVTlnKo6TMAFPRb4esHr-15" target="nVTlnKo6TMAFPRb4esHr-40">
          <mxGeometry relative="1" as="geometry" />
        </mxCell>
        <mxCell id="nVTlnKo6TMAFPRb4esHr-14" style="edgeStyle=orthogonalEdgeStyle;rounded=0;orthogonalLoop=1;jettySize=auto;html=1;exitX=1;exitY=0.5;exitDx=0;exitDy=0;entryX=0;entryY=0.5;entryDx=0;entryDy=0;" edge="1" parent="1" source="nVTlnKo6TMAFPRb4esHr-15" target="nVTlnKo6TMAFPRb4esHr-36">
          <mxGeometry relative="1" as="geometry" />
        </mxCell>
        <mxCell id="nVTlnKo6TMAFPRb4esHr-77" style="edgeStyle=orthogonalEdgeStyle;rounded=0;orthogonalLoop=1;jettySize=auto;html=1;exitX=1;exitY=0.5;exitDx=0;exitDy=0;entryX=0;entryY=0.5;entryDx=0;entryDy=0;" edge="1" parent="1" source="nVTlnKo6TMAFPRb4esHr-15" target="nVTlnKo6TMAFPRb4esHr-73">
          <mxGeometry relative="1" as="geometry" />
        </mxCell>
        <mxCell id="nVTlnKo6TMAFPRb4esHr-78" style="edgeStyle=orthogonalEdgeStyle;rounded=0;orthogonalLoop=1;jettySize=auto;html=1;exitX=1;exitY=0.5;exitDx=0;exitDy=0;entryX=0;entryY=0.5;entryDx=0;entryDy=0;" edge="1" parent="1" source="nVTlnKo6TMAFPRb4esHr-15" target="nVTlnKo6TMAFPRb4esHr-74">
          <mxGeometry relative="1" as="geometry" />
        </mxCell>
        <mxCell id="nVTlnKo6TMAFPRb4esHr-79" style="edgeStyle=orthogonalEdgeStyle;rounded=0;orthogonalLoop=1;jettySize=auto;html=1;exitX=1;exitY=0.5;exitDx=0;exitDy=0;entryX=0;entryY=0.5;entryDx=0;entryDy=0;" edge="1" parent="1" source="nVTlnKo6TMAFPRb4esHr-15" target="nVTlnKo6TMAFPRb4esHr-75">
          <mxGeometry relative="1" as="geometry" />
        </mxCell>
        <mxCell id="nVTlnKo6TMAFPRb4esHr-80" style="edgeStyle=orthogonalEdgeStyle;rounded=0;orthogonalLoop=1;jettySize=auto;html=1;exitX=1;exitY=0.5;exitDx=0;exitDy=0;entryX=0;entryY=0.5;entryDx=0;entryDy=0;" edge="1" parent="1" source="nVTlnKo6TMAFPRb4esHr-15" target="nVTlnKo6TMAFPRb4esHr-76">
          <mxGeometry relative="1" as="geometry" />
        </mxCell>
        <mxCell id="nVTlnKo6TMAFPRb4esHr-15" value="Iniciar sesión" style="rounded=0;whiteSpace=wrap;html=1;" vertex="1" parent="1">
          <mxGeometry x="355" y="545" width="120" height="60" as="geometry" />
        </mxCell>
        <mxCell id="nVTlnKo6TMAFPRb4esHr-16" style="edgeStyle=orthogonalEdgeStyle;rounded=0;orthogonalLoop=1;jettySize=auto;html=1;exitX=1;exitY=0.5;exitDx=0;exitDy=0;entryX=0;entryY=0.5;entryDx=0;entryDy=0;" edge="1" parent="1" source="nVTlnKo6TMAFPRb4esHr-17" target="nVTlnKo6TMAFPRb4esHr-42">
          <mxGeometry relative="1" as="geometry" />
        </mxCell>
        <mxCell id="nVTlnKo6TMAFPRb4esHr-17" value="Opción de &quot;Ingresar datos del trabajador&quot;" style="rounded=0;whiteSpace=wrap;html=1;" vertex="1" parent="1">
          <mxGeometry x="520" y="545" width="120" height="60" as="geometry" />
        </mxCell>
        <mxCell id="nVTlnKo6TMAFPRb4esHr-18" style="edgeStyle=orthogonalEdgeStyle;rounded=0;orthogonalLoop=1;jettySize=auto;html=1;exitX=1;exitY=0.5;exitDx=0;exitDy=0;exitPerimeter=0;entryX=0;entryY=0.5;entryDx=0;entryDy=0;" edge="1" parent="1" source="nVTlnKo6TMAFPRb4esHr-19" target="nVTlnKo6TMAFPRb4esHr-15">
          <mxGeometry relative="1" as="geometry" />
        </mxCell>
        <mxCell id="nVTlnKo6TMAFPRb4esHr-19" value="" style="points=[[0.145,0.145,0],[0.5,0,0],[0.855,0.145,0],[1,0.5,0],[0.855,0.855,0],[0.5,1,0],[0.145,0.855,0],[0,0.5,0]];shape=mxgraph.bpmn.event;html=1;verticalLabelPosition=bottom;labelBackgroundColor=#ffffff;verticalAlign=top;align=center;perimeter=ellipsePerimeter;outlineConnect=0;aspect=fixed;outline=standard;symbol=general;shadow=1;strokeColor=default;fontFamily=Helvetica;fontSize=12;fontColor=default;fillColor=#000000;" vertex="1" parent="1">
          <mxGeometry x="230" y="550" width="50" height="50" as="geometry" />
        </mxCell>
        <mxCell id="nVTlnKo6TMAFPRb4esHr-20" style="edgeStyle=orthogonalEdgeStyle;rounded=0;orthogonalLoop=1;jettySize=auto;html=1;exitX=1;exitY=0.5;exitDx=0;exitDy=0;entryX=0.5;entryY=0;entryDx=0;entryDy=0;" edge="1" parent="1" source="nVTlnKo6TMAFPRb4esHr-21" target="nVTlnKo6TMAFPRb4esHr-34">
          <mxGeometry relative="1" as="geometry" />
        </mxCell>
        <mxCell id="nVTlnKo6TMAFPRb4esHr-21" value="Guardar datos" style="rounded=0;whiteSpace=wrap;html=1;" vertex="1" parent="1">
          <mxGeometry x="1195" y="555" width="120" height="60" as="geometry" />
        </mxCell>
        <mxCell id="nVTlnKo6TMAFPRb4esHr-23" style="edgeStyle=orthogonalEdgeStyle;rounded=0;orthogonalLoop=1;jettySize=auto;html=1;exitX=1;exitY=0.5;exitDx=0;exitDy=0;entryX=0;entryY=0.5;entryDx=0;entryDy=0;" edge="1" parent="1" source="nVTlnKo6TMAFPRb4esHr-25" target="nVTlnKo6TMAFPRb4esHr-46">
          <mxGeometry relative="1" as="geometry" />
        </mxCell>
        <mxCell id="nVTlnKo6TMAFPRb4esHr-91" style="edgeStyle=orthogonalEdgeStyle;rounded=0;orthogonalLoop=1;jettySize=auto;html=1;exitX=0.5;exitY=0;exitDx=0;exitDy=0;entryX=0;entryY=0.5;entryDx=0;entryDy=0;" edge="1" parent="1" source="nVTlnKo6TMAFPRb4esHr-25" target="nVTlnKo6TMAFPRb4esHr-44">
          <mxGeometry relative="1" as="geometry" />
        </mxCell>
        <mxCell id="nVTlnKo6TMAFPRb4esHr-25" value="Se valida que los campos sean llenados correctamente" style="rounded=0;whiteSpace=wrap;html=1;" vertex="1" parent="1">
          <mxGeometry x="880" y="730" width="120" height="60" as="geometry" />
        </mxCell>
        <mxCell id="nVTlnKo6TMAFPRb4esHr-26" style="edgeStyle=orthogonalEdgeStyle;rounded=0;orthogonalLoop=1;jettySize=auto;html=1;exitX=0.5;exitY=1;exitDx=0;exitDy=0;entryX=0.5;entryY=0;entryDx=0;entryDy=0;" edge="1" parent="1" source="nVTlnKo6TMAFPRb4esHr-27" target="nVTlnKo6TMAFPRb4esHr-57">
          <mxGeometry relative="1" as="geometry" />
        </mxCell>
        <mxCell id="nVTlnKo6TMAFPRb4esHr-27" value="Envía datos solicitados" style="rounded=0;whiteSpace=wrap;html=1;" vertex="1" parent="1">
          <mxGeometry x="1200" y="730" width="120" height="60" as="geometry" />
        </mxCell>
        <mxCell id="nVTlnKo6TMAFPRb4esHr-107" style="edgeStyle=orthogonalEdgeStyle;rounded=0;orthogonalLoop=1;jettySize=auto;html=1;exitX=0.5;exitY=1;exitDx=0;exitDy=0;entryX=1;entryY=0.5;entryDx=0;entryDy=0;" edge="1" parent="1" source="nVTlnKo6TMAFPRb4esHr-34" target="nVTlnKo6TMAFPRb4esHr-98">
          <mxGeometry relative="1" as="geometry" />
        </mxCell>
        <mxCell id="nVTlnKo6TMAFPRb4esHr-108" value="SI" style="edgeLabel;html=1;align=center;verticalAlign=middle;resizable=0;points=[];" connectable="0" vertex="1" parent="nVTlnKo6TMAFPRb4esHr-107">
          <mxGeometry x="0.668" y="4" relative="1" as="geometry">
            <mxPoint x="-1" as="offset" />
          </mxGeometry>
        </mxCell>
        <mxCell id="nVTlnKo6TMAFPRb4esHr-114" style="edgeStyle=orthogonalEdgeStyle;rounded=0;orthogonalLoop=1;jettySize=auto;html=1;exitX=1;exitY=0.5;exitDx=0;exitDy=0;entryX=1;entryY=0.5;entryDx=0;entryDy=0;" edge="1" parent="1" source="nVTlnKo6TMAFPRb4esHr-34" target="nVTlnKo6TMAFPRb4esHr-99">
          <mxGeometry relative="1" as="geometry">
            <Array as="points">
              <mxPoint x="1450" y="1035" />
              <mxPoint x="1450" y="2180" />
            </Array>
          </mxGeometry>
        </mxCell>
        <mxCell id="nVTlnKo6TMAFPRb4esHr-115" value="NO" style="edgeLabel;html=1;align=center;verticalAlign=middle;resizable=0;points=[];" connectable="0" vertex="1" parent="nVTlnKo6TMAFPRb4esHr-114">
          <mxGeometry x="0.7541" y="-2" relative="1" as="geometry">
            <mxPoint as="offset" />
          </mxGeometry>
        </mxCell>
        <mxCell id="nVTlnKo6TMAFPRb4esHr-34" value="¿Los datos se guardan?" style="rhombus;whiteSpace=wrap;html=1;" vertex="1" parent="1">
          <mxGeometry x="1361" y="990" width="85" height="90" as="geometry" />
        </mxCell>
        <mxCell id="nVTlnKo6TMAFPRb4esHr-85" style="edgeStyle=orthogonalEdgeStyle;rounded=0;orthogonalLoop=1;jettySize=auto;html=1;exitX=1;exitY=0.5;exitDx=0;exitDy=0;entryX=0;entryY=0.5;entryDx=0;entryDy=0;" edge="1" parent="1" source="nVTlnKo6TMAFPRb4esHr-36" target="nVTlnKo6TMAFPRb4esHr-81">
          <mxGeometry relative="1" as="geometry" />
        </mxCell>
        <mxCell id="nVTlnKo6TMAFPRb4esHr-36" value="Opción de &quot;Registrar horas trabajadas, entrada y salida&quot;" style="rounded=0;whiteSpace=wrap;html=1;" vertex="1" parent="1">
          <mxGeometry x="520" y="810" width="120" height="60" as="geometry" />
        </mxCell>
        <mxCell id="nVTlnKo6TMAFPRb4esHr-82" style="edgeStyle=orthogonalEdgeStyle;rounded=0;orthogonalLoop=1;jettySize=auto;html=1;exitX=1;exitY=0.5;exitDx=0;exitDy=0;entryX=0;entryY=0.5;entryDx=0;entryDy=0;" edge="1" parent="1" source="nVTlnKo6TMAFPRb4esHr-38" target="nVTlnKo6TMAFPRb4esHr-81">
          <mxGeometry relative="1" as="geometry" />
        </mxCell>
        <mxCell id="nVTlnKo6TMAFPRb4esHr-38" value="Opción de &quot;Modificar datos de un trabajador&quot;" style="rounded=0;whiteSpace=wrap;html=1;" vertex="1" parent="1">
          <mxGeometry x="520" y="630" width="120" height="60" as="geometry" />
        </mxCell>
        <mxCell id="nVTlnKo6TMAFPRb4esHr-84" style="edgeStyle=orthogonalEdgeStyle;rounded=0;orthogonalLoop=1;jettySize=auto;html=1;exitX=1;exitY=0.5;exitDx=0;exitDy=0;entryX=0;entryY=0.5;entryDx=0;entryDy=0;" edge="1" parent="1" source="nVTlnKo6TMAFPRb4esHr-40" target="nVTlnKo6TMAFPRb4esHr-81">
          <mxGeometry relative="1" as="geometry" />
        </mxCell>
        <mxCell id="nVTlnKo6TMAFPRb4esHr-40" value="Opción de &quot;Desactivar un trabajador&quot;" style="rounded=0;whiteSpace=wrap;html=1;" vertex="1" parent="1">
          <mxGeometry x="520" y="720" width="120" height="60" as="geometry" />
        </mxCell>
        <mxCell id="nVTlnKo6TMAFPRb4esHr-41" style="edgeStyle=orthogonalEdgeStyle;rounded=0;orthogonalLoop=1;jettySize=auto;html=1;exitX=1;exitY=0.5;exitDx=0;exitDy=0;entryX=0;entryY=0.5;entryDx=0;entryDy=0;" edge="1" parent="1" source="nVTlnKo6TMAFPRb4esHr-42" target="nVTlnKo6TMAFPRb4esHr-25">
          <mxGeometry relative="1" as="geometry" />
        </mxCell>
        <mxCell id="nVTlnKo6TMAFPRb4esHr-42" value="Llenar formulario" style="rounded=0;whiteSpace=wrap;html=1;" vertex="1" parent="1">
          <mxGeometry x="680" y="545" width="120" height="60" as="geometry" />
        </mxCell>
        <mxCell id="nVTlnKo6TMAFPRb4esHr-43" style="edgeStyle=orthogonalEdgeStyle;rounded=0;orthogonalLoop=1;jettySize=auto;html=1;exitX=1;exitY=0.5;exitDx=0;exitDy=0;entryX=0;entryY=0.5;entryDx=0;entryDy=0;" edge="1" parent="1" source="nVTlnKo6TMAFPRb4esHr-44" target="nVTlnKo6TMAFPRb4esHr-21">
          <mxGeometry relative="1" as="geometry" />
        </mxCell>
        <mxCell id="nVTlnKo6TMAFPRb4esHr-44" value="Enviar datos &quot;Datos del trabajador&quot;" style="rounded=0;whiteSpace=wrap;html=1;" vertex="1" parent="1">
          <mxGeometry x="1030" y="555" width="120" height="60" as="geometry" />
        </mxCell>
        <mxCell id="nVTlnKo6TMAFPRb4esHr-45" style="edgeStyle=orthogonalEdgeStyle;rounded=0;orthogonalLoop=1;jettySize=auto;html=1;exitX=1;exitY=0.5;exitDx=0;exitDy=0;entryX=0;entryY=0.5;entryDx=0;entryDy=0;" edge="1" parent="1" source="nVTlnKo6TMAFPRb4esHr-46" target="nVTlnKo6TMAFPRb4esHr-27">
          <mxGeometry relative="1" as="geometry" />
        </mxCell>
        <mxCell id="nVTlnKo6TMAFPRb4esHr-46" value="Solicitar datos de trabajador buscado" style="rounded=0;whiteSpace=wrap;html=1;" vertex="1" parent="1">
          <mxGeometry x="1030" y="730" width="120" height="60" as="geometry" />
        </mxCell>
        <mxCell id="nVTlnKo6TMAFPRb4esHr-53" style="edgeStyle=orthogonalEdgeStyle;rounded=0;orthogonalLoop=1;jettySize=auto;html=1;exitX=0;exitY=0.5;exitDx=0;exitDy=0;entryX=1;entryY=0.5;entryDx=0;entryDy=0;" edge="1" parent="1" source="nVTlnKo6TMAFPRb4esHr-57" target="nVTlnKo6TMAFPRb4esHr-61">
          <mxGeometry relative="1" as="geometry" />
        </mxCell>
        <mxCell id="nVTlnKo6TMAFPRb4esHr-116" value="SI" style="edgeLabel;html=1;align=center;verticalAlign=middle;resizable=0;points=[];" connectable="0" vertex="1" parent="nVTlnKo6TMAFPRb4esHr-53">
          <mxGeometry x="0.7715" y="1" relative="1" as="geometry">
            <mxPoint as="offset" />
          </mxGeometry>
        </mxCell>
        <mxCell id="nVTlnKo6TMAFPRb4esHr-94" style="edgeStyle=orthogonalEdgeStyle;rounded=0;orthogonalLoop=1;jettySize=auto;html=1;exitX=0;exitY=0.5;exitDx=0;exitDy=0;entryX=1;entryY=0.5;entryDx=0;entryDy=0;" edge="1" parent="1" source="nVTlnKo6TMAFPRb4esHr-57" target="nVTlnKo6TMAFPRb4esHr-63">
          <mxGeometry relative="1" as="geometry" />
        </mxCell>
        <mxCell id="nVTlnKo6TMAFPRb4esHr-117" value="SI" style="edgeLabel;html=1;align=center;verticalAlign=middle;resizable=0;points=[];" connectable="0" vertex="1" parent="nVTlnKo6TMAFPRb4esHr-94">
          <mxGeometry x="0.7996" y="-3" relative="1" as="geometry">
            <mxPoint as="offset" />
          </mxGeometry>
        </mxCell>
        <mxCell id="nVTlnKo6TMAFPRb4esHr-109" style="edgeStyle=orthogonalEdgeStyle;rounded=0;orthogonalLoop=1;jettySize=auto;html=1;exitX=0;exitY=0.5;exitDx=0;exitDy=0;entryX=1;entryY=0.5;entryDx=0;entryDy=0;" edge="1" parent="1" source="nVTlnKo6TMAFPRb4esHr-57" target="nVTlnKo6TMAFPRb4esHr-72">
          <mxGeometry relative="1" as="geometry" />
        </mxCell>
        <mxCell id="nVTlnKo6TMAFPRb4esHr-118" value="SI" style="edgeLabel;html=1;align=center;verticalAlign=middle;resizable=0;points=[];" connectable="0" vertex="1" parent="nVTlnKo6TMAFPRb4esHr-109">
          <mxGeometry x="0.8081" y="2" relative="1" as="geometry">
            <mxPoint x="1" as="offset" />
          </mxGeometry>
        </mxCell>
        <mxCell id="nVTlnKo6TMAFPRb4esHr-110" style="edgeStyle=orthogonalEdgeStyle;rounded=0;orthogonalLoop=1;jettySize=auto;html=1;exitX=0;exitY=0.5;exitDx=0;exitDy=0;entryX=1;entryY=0.5;entryDx=0;entryDy=0;" edge="1" parent="1" source="nVTlnKo6TMAFPRb4esHr-57" target="nVTlnKo6TMAFPRb4esHr-59">
          <mxGeometry relative="1" as="geometry" />
        </mxCell>
        <mxCell id="nVTlnKo6TMAFPRb4esHr-119" value="SI" style="edgeLabel;html=1;align=center;verticalAlign=middle;resizable=0;points=[];" connectable="0" vertex="1" parent="nVTlnKo6TMAFPRb4esHr-110">
          <mxGeometry x="0.8318" relative="1" as="geometry">
            <mxPoint as="offset" />
          </mxGeometry>
        </mxCell>
        <mxCell id="nVTlnKo6TMAFPRb4esHr-111" style="edgeStyle=orthogonalEdgeStyle;rounded=0;orthogonalLoop=1;jettySize=auto;html=1;exitX=0;exitY=0.5;exitDx=0;exitDy=0;entryX=1;entryY=0.5;entryDx=0;entryDy=0;" edge="1" parent="1" source="nVTlnKo6TMAFPRb4esHr-57" target="nVTlnKo6TMAFPRb4esHr-69">
          <mxGeometry relative="1" as="geometry" />
        </mxCell>
        <mxCell id="nVTlnKo6TMAFPRb4esHr-120" value="SI" style="edgeLabel;html=1;align=center;verticalAlign=middle;resizable=0;points=[];" connectable="0" vertex="1" parent="nVTlnKo6TMAFPRb4esHr-111">
          <mxGeometry x="0.8463" relative="1" as="geometry">
            <mxPoint x="1" as="offset" />
          </mxGeometry>
        </mxCell>
        <mxCell id="nVTlnKo6TMAFPRb4esHr-112" style="edgeStyle=orthogonalEdgeStyle;rounded=0;orthogonalLoop=1;jettySize=auto;html=1;exitX=0;exitY=0.5;exitDx=0;exitDy=0;entryX=1;entryY=0.5;entryDx=0;entryDy=0;" edge="1" parent="1" source="nVTlnKo6TMAFPRb4esHr-57" target="nVTlnKo6TMAFPRb4esHr-65">
          <mxGeometry relative="1" as="geometry" />
        </mxCell>
        <mxCell id="nVTlnKo6TMAFPRb4esHr-121" value="SI" style="edgeLabel;html=1;align=center;verticalAlign=middle;resizable=0;points=[];" connectable="0" vertex="1" parent="nVTlnKo6TMAFPRb4esHr-112">
          <mxGeometry x="0.8565" y="3" relative="1" as="geometry">
            <mxPoint x="1" as="offset" />
          </mxGeometry>
        </mxCell>
        <mxCell id="nVTlnKo6TMAFPRb4esHr-113" style="edgeStyle=orthogonalEdgeStyle;rounded=0;orthogonalLoop=1;jettySize=auto;html=1;exitX=0.5;exitY=1;exitDx=0;exitDy=0;entryX=1;entryY=0.5;entryDx=0;entryDy=0;" edge="1" parent="1" source="nVTlnKo6TMAFPRb4esHr-57" target="nVTlnKo6TMAFPRb4esHr-97">
          <mxGeometry relative="1" as="geometry" />
        </mxCell>
        <mxCell id="nVTlnKo6TMAFPRb4esHr-122" value="NO" style="edgeLabel;html=1;align=center;verticalAlign=middle;resizable=0;points=[];" connectable="0" vertex="1" parent="nVTlnKo6TMAFPRb4esHr-113">
          <mxGeometry x="0.8493" y="-1" relative="1" as="geometry">
            <mxPoint x="1" as="offset" />
          </mxGeometry>
        </mxCell>
        <mxCell id="nVTlnKo6TMAFPRb4esHr-57" value="¿Los datos se envían correctamente?" style="rhombus;whiteSpace=wrap;html=1;" vertex="1" parent="1">
          <mxGeometry x="1195" y="875" width="130" height="130" as="geometry" />
        </mxCell>
        <mxCell id="nVTlnKo6TMAFPRb4esHr-125" style="edgeStyle=orthogonalEdgeStyle;rounded=0;orthogonalLoop=1;jettySize=auto;html=1;exitX=0;exitY=0.5;exitDx=0;exitDy=0;entryX=0.75;entryY=1;entryDx=0;entryDy=0;" edge="1" parent="1" source="nVTlnKo6TMAFPRb4esHr-59" target="nVTlnKo6TMAFPRb4esHr-100">
          <mxGeometry relative="1" as="geometry" />
        </mxCell>
        <mxCell id="nVTlnKo6TMAFPRb4esHr-59" value="Opción de &quot;Registrar ausencias, días libres y permisos&quot; del trabajador buscado" style="rounded=0;whiteSpace=wrap;html=1;" vertex="1" parent="1">
          <mxGeometry x="720" y="1510" width="120" height="60" as="geometry" />
        </mxCell>
        <mxCell id="nVTlnKo6TMAFPRb4esHr-123" style="edgeStyle=orthogonalEdgeStyle;rounded=0;orthogonalLoop=1;jettySize=auto;html=1;exitX=0;exitY=0.5;exitDx=0;exitDy=0;entryX=0.5;entryY=0;entryDx=0;entryDy=0;" edge="1" parent="1" source="nVTlnKo6TMAFPRb4esHr-61" target="nVTlnKo6TMAFPRb4esHr-100">
          <mxGeometry relative="1" as="geometry" />
        </mxCell>
        <mxCell id="nVTlnKo6TMAFPRb4esHr-61" value="Se despliegan los datos del trabajador para modificar" style="rounded=0;whiteSpace=wrap;html=1;" vertex="1" parent="1">
          <mxGeometry x="720" y="1330" width="120" height="60" as="geometry" />
        </mxCell>
        <mxCell id="nVTlnKo6TMAFPRb4esHr-129" style="edgeStyle=orthogonalEdgeStyle;rounded=0;orthogonalLoop=1;jettySize=auto;html=1;exitX=0;exitY=0.5;exitDx=0;exitDy=0;entryX=0;entryY=0.5;entryDx=0;entryDy=0;" edge="1" parent="1" source="nVTlnKo6TMAFPRb4esHr-63" target="nVTlnKo6TMAFPRb4esHr-127">
          <mxGeometry relative="1" as="geometry" />
        </mxCell>
        <mxCell id="nVTlnKo6TMAFPRb4esHr-63" value="¿Desactivar trabajador buscado?" style="rounded=0;whiteSpace=wrap;html=1;" vertex="1" parent="1">
          <mxGeometry x="720" y="1235" width="120" height="60" as="geometry" />
        </mxCell>
        <mxCell id="nVTlnKo6TMAFPRb4esHr-64" style="edgeStyle=orthogonalEdgeStyle;rounded=0;orthogonalLoop=1;jettySize=auto;html=1;exitX=0;exitY=0.5;exitDx=0;exitDy=0;entryX=1;entryY=0.5;entryDx=0;entryDy=0;" edge="1" parent="1" source="nVTlnKo6TMAFPRb4esHr-65" target="nVTlnKo6TMAFPRb4esHr-66">
          <mxGeometry relative="1" as="geometry" />
        </mxCell>
        <mxCell id="nVTlnKo6TMAFPRb4esHr-65" value="Registro del trabajador buscado" style="rounded=0;whiteSpace=wrap;html=1;" vertex="1" parent="1">
          <mxGeometry x="720" y="1693.5" width="120" height="60" as="geometry" />
        </mxCell>
        <mxCell id="nVTlnKo6TMAFPRb4esHr-66" value="Cerrar Sesión&amp;nbsp;" style="rounded=0;whiteSpace=wrap;html=1;" vertex="1" parent="1">
          <mxGeometry x="330" y="1694" width="120" height="60" as="geometry" />
        </mxCell>
        <mxCell id="nVTlnKo6TMAFPRb4esHr-67" style="edgeStyle=orthogonalEdgeStyle;rounded=0;orthogonalLoop=1;jettySize=auto;html=1;exitX=0;exitY=0.5;exitDx=0;exitDy=0;entryX=1;entryY=0.5;entryDx=0;entryDy=0;entryPerimeter=0;" edge="1" parent="1" source="nVTlnKo6TMAFPRb4esHr-66" target="nVTlnKo6TMAFPRb4esHr-10">
          <mxGeometry relative="1" as="geometry" />
        </mxCell>
        <mxCell id="nVTlnKo6TMAFPRb4esHr-126" style="edgeStyle=orthogonalEdgeStyle;rounded=0;orthogonalLoop=1;jettySize=auto;html=1;exitX=0;exitY=0.5;exitDx=0;exitDy=0;entryX=0.5;entryY=1;entryDx=0;entryDy=0;" edge="1" parent="1" source="nVTlnKo6TMAFPRb4esHr-69" target="nVTlnKo6TMAFPRb4esHr-100">
          <mxGeometry relative="1" as="geometry" />
        </mxCell>
        <mxCell id="nVTlnKo6TMAFPRb4esHr-69" value="Opción de&quot; Evaluar el desempeño&quot; del trabajador buscado" style="rounded=0;whiteSpace=wrap;html=1;" vertex="1" parent="1">
          <mxGeometry x="720" y="1600" width="120" height="60" as="geometry" />
        </mxCell>
        <mxCell id="nVTlnKo6TMAFPRb4esHr-70" style="edgeStyle=orthogonalEdgeStyle;rounded=0;orthogonalLoop=1;jettySize=auto;html=1;exitX=0.5;exitY=1;exitDx=0;exitDy=0;" edge="1" parent="1" source="nVTlnKo6TMAFPRb4esHr-34" target="nVTlnKo6TMAFPRb4esHr-34">
          <mxGeometry relative="1" as="geometry" />
        </mxCell>
        <mxCell id="nVTlnKo6TMAFPRb4esHr-124" style="edgeStyle=orthogonalEdgeStyle;rounded=0;orthogonalLoop=1;jettySize=auto;html=1;exitX=0;exitY=0.5;exitDx=0;exitDy=0;entryX=1;entryY=0.5;entryDx=0;entryDy=0;" edge="1" parent="1" source="nVTlnKo6TMAFPRb4esHr-72" target="nVTlnKo6TMAFPRb4esHr-100">
          <mxGeometry relative="1" as="geometry" />
        </mxCell>
        <mxCell id="nVTlnKo6TMAFPRb4esHr-72" value="Opción de &quot;Registrar horas trabajadas, entrada o salida&quot; del trabajador buscado" style="rounded=0;whiteSpace=wrap;html=1;" vertex="1" parent="1">
          <mxGeometry x="720" y="1420" width="120" height="60" as="geometry" />
        </mxCell>
        <mxCell id="nVTlnKo6TMAFPRb4esHr-86" style="edgeStyle=orthogonalEdgeStyle;rounded=0;orthogonalLoop=1;jettySize=auto;html=1;exitX=1;exitY=0.5;exitDx=0;exitDy=0;entryX=0;entryY=0.5;entryDx=0;entryDy=0;" edge="1" parent="1" source="nVTlnKo6TMAFPRb4esHr-73" target="nVTlnKo6TMAFPRb4esHr-81">
          <mxGeometry relative="1" as="geometry" />
        </mxCell>
        <mxCell id="nVTlnKo6TMAFPRb4esHr-73" value="Opción de &quot;Registrar ausencias, días libres y permisos&quot;" style="rounded=0;whiteSpace=wrap;html=1;" vertex="1" parent="1">
          <mxGeometry x="520" y="900" width="120" height="60" as="geometry" />
        </mxCell>
        <mxCell id="nVTlnKo6TMAFPRb4esHr-87" style="edgeStyle=orthogonalEdgeStyle;rounded=0;orthogonalLoop=1;jettySize=auto;html=1;exitX=1;exitY=0.5;exitDx=0;exitDy=0;entryX=0;entryY=0.5;entryDx=0;entryDy=0;" edge="1" parent="1" source="nVTlnKo6TMAFPRb4esHr-74" target="nVTlnKo6TMAFPRb4esHr-81">
          <mxGeometry relative="1" as="geometry" />
        </mxCell>
        <mxCell id="nVTlnKo6TMAFPRb4esHr-74" value="Opción de&quot; Evaluación de desempeño&quot;" style="rounded=0;whiteSpace=wrap;html=1;" vertex="1" parent="1">
          <mxGeometry x="520" y="990" width="120" height="60" as="geometry" />
        </mxCell>
        <mxCell id="nVTlnKo6TMAFPRb4esHr-88" style="edgeStyle=orthogonalEdgeStyle;rounded=0;orthogonalLoop=1;jettySize=auto;html=1;exitX=1;exitY=0.5;exitDx=0;exitDy=0;entryX=0;entryY=0.5;entryDx=0;entryDy=0;" edge="1" parent="1" source="nVTlnKo6TMAFPRb4esHr-75" target="nVTlnKo6TMAFPRb4esHr-81">
          <mxGeometry relative="1" as="geometry" />
        </mxCell>
        <mxCell id="nVTlnKo6TMAFPRb4esHr-75" value="Opción de &quot;Generar registro de un empleado&quot;" style="rounded=0;whiteSpace=wrap;html=1;" vertex="1" parent="1">
          <mxGeometry x="520" y="1080" width="120" height="60" as="geometry" />
        </mxCell>
        <mxCell id="nVTlnKo6TMAFPRb4esHr-89" style="edgeStyle=orthogonalEdgeStyle;rounded=0;orthogonalLoop=1;jettySize=auto;html=1;exitX=1;exitY=0.5;exitDx=0;exitDy=0;entryX=0;entryY=0.5;entryDx=0;entryDy=0;" edge="1" parent="1" source="nVTlnKo6TMAFPRb4esHr-76" target="nVTlnKo6TMAFPRb4esHr-81">
          <mxGeometry relative="1" as="geometry" />
        </mxCell>
        <mxCell id="nVTlnKo6TMAFPRb4esHr-76" value="Opción de &quot;Calcular salario&quot;" style="rounded=0;whiteSpace=wrap;html=1;" vertex="1" parent="1">
          <mxGeometry x="520" y="1169" width="120" height="60" as="geometry" />
        </mxCell>
        <mxCell id="nVTlnKo6TMAFPRb4esHr-90" style="edgeStyle=orthogonalEdgeStyle;rounded=0;orthogonalLoop=1;jettySize=auto;html=1;exitX=1;exitY=0.5;exitDx=0;exitDy=0;entryX=0;entryY=0.5;entryDx=0;entryDy=0;" edge="1" parent="1" source="nVTlnKo6TMAFPRb4esHr-81" target="nVTlnKo6TMAFPRb4esHr-25">
          <mxGeometry relative="1" as="geometry" />
        </mxCell>
        <mxCell id="nVTlnKo6TMAFPRb4esHr-81" value="Opción de &quot;Buscar trabajador&quot;" style="rounded=0;whiteSpace=wrap;html=1;" vertex="1" parent="1">
          <mxGeometry x="680" y="900" width="120" height="60" as="geometry" />
        </mxCell>
        <mxCell id="nVTlnKo6TMAFPRb4esHr-97" value="Error" style="rounded=0;whiteSpace=wrap;html=1;" vertex="1" parent="1">
          <mxGeometry x="720" y="1780" width="120" height="60" as="geometry" />
        </mxCell>
        <mxCell id="nVTlnKo6TMAFPRb4esHr-104" value="" style="edgeStyle=orthogonalEdgeStyle;rounded=0;orthogonalLoop=1;jettySize=auto;html=1;" edge="1" parent="1" source="nVTlnKo6TMAFPRb4esHr-98" target="nVTlnKo6TMAFPRb4esHr-101">
          <mxGeometry relative="1" as="geometry" />
        </mxCell>
        <mxCell id="nVTlnKo6TMAFPRb4esHr-98" value="Salario mensual del trabajador buscado" style="rounded=0;whiteSpace=wrap;html=1;" vertex="1" parent="1">
          <mxGeometry x="720" y="1870" width="120" height="60" as="geometry" />
        </mxCell>
        <mxCell id="nVTlnKo6TMAFPRb4esHr-99" value="Error" style="rounded=0;whiteSpace=wrap;html=1;" vertex="1" parent="1">
          <mxGeometry x="720" y="2150" width="120" height="60" as="geometry" />
        </mxCell>
        <mxCell id="nVTlnKo6TMAFPRb4esHr-130" style="edgeStyle=orthogonalEdgeStyle;rounded=0;orthogonalLoop=1;jettySize=auto;html=1;exitX=0.25;exitY=1;exitDx=0;exitDy=0;entryX=0.25;entryY=0;entryDx=0;entryDy=0;" edge="1" parent="1" source="nVTlnKo6TMAFPRb4esHr-100" target="nVTlnKo6TMAFPRb4esHr-127">
          <mxGeometry relative="1" as="geometry" />
        </mxCell>
        <mxCell id="nVTlnKo6TMAFPRb4esHr-100" value="Llenar el formulario" style="rounded=0;whiteSpace=wrap;html=1;" vertex="1" parent="1">
          <mxGeometry x="520" y="1420" width="120" height="60" as="geometry" />
        </mxCell>
        <mxCell id="nVTlnKo6TMAFPRb4esHr-105" value="" style="rounded=0;orthogonalLoop=1;jettySize=auto;html=1;" edge="1" parent="1" source="nVTlnKo6TMAFPRb4esHr-101" target="nVTlnKo6TMAFPRb4esHr-102">
          <mxGeometry relative="1" as="geometry" />
        </mxCell>
        <mxCell id="nVTlnKo6TMAFPRb4esHr-101" value="Llenar formulario de calculo" style="rounded=0;whiteSpace=wrap;html=1;" vertex="1" parent="1">
          <mxGeometry x="720" y="1970" width="120" height="60" as="geometry" />
        </mxCell>
        <mxCell id="nVTlnKo6TMAFPRb4esHr-106" style="rounded=0;orthogonalLoop=1;jettySize=auto;html=1;exitX=0;exitY=0.75;exitDx=0;exitDy=0;entryX=1;entryY=0.5;entryDx=0;entryDy=0;" edge="1" parent="1" source="nVTlnKo6TMAFPRb4esHr-102" target="nVTlnKo6TMAFPRb4esHr-103">
          <mxGeometry relative="1" as="geometry" />
        </mxCell>
        <mxCell id="nVTlnKo6TMAFPRb4esHr-102" value="Calculo de salario" style="rounded=0;whiteSpace=wrap;html=1;" vertex="1" parent="1">
          <mxGeometry x="950" y="2020" width="120" height="60" as="geometry" />
        </mxCell>
        <mxCell id="nVTlnKo6TMAFPRb4esHr-133" style="edgeStyle=orthogonalEdgeStyle;rounded=0;orthogonalLoop=1;jettySize=auto;html=1;exitX=0;exitY=0.5;exitDx=0;exitDy=0;" edge="1" parent="1" source="nVTlnKo6TMAFPRb4esHr-103" target="nVTlnKo6TMAFPRb4esHr-127">
          <mxGeometry relative="1" as="geometry" />
        </mxCell>
        <mxCell id="nVTlnKo6TMAFPRb4esHr-103" value="Calculo de salario final" style="rounded=0;whiteSpace=wrap;html=1;" vertex="1" parent="1">
          <mxGeometry x="720" y="2060" width="120" height="60" as="geometry" />
        </mxCell>
        <mxCell id="nVTlnKo6TMAFPRb4esHr-132" style="edgeStyle=orthogonalEdgeStyle;rounded=0;orthogonalLoop=1;jettySize=auto;html=1;exitX=0;exitY=1;exitDx=0;exitDy=0;entryX=1;entryY=0.25;entryDx=0;entryDy=0;" edge="1" parent="1" source="nVTlnKo6TMAFPRb4esHr-127" target="nVTlnKo6TMAFPRb4esHr-66">
          <mxGeometry relative="1" as="geometry">
            <Array as="points">
              <mxPoint x="485" y="1709" />
            </Array>
          </mxGeometry>
        </mxCell>
        <mxCell id="nVTlnKo6TMAFPRb4esHr-127" value="Guardar" style="rounded=0;whiteSpace=wrap;html=1;" vertex="1" parent="1">
          <mxGeometry x="520" y="1650" width="120" height="60" as="geometry" />
        </mxCell>
      </root>
    </mxGraphModel>
  </diagram>
</mxfile>
